
<svg width="130" height="55" viewBox="0 0 130 55" version="1.1" xmlns="http://www.w3.org/2000/svg" xmlns:xlink="http://www.w3.org/1999/xlink" xmlns:figma="http://www.figma.com/figma/ns">
<title>Frame</title>
<desc>Created using Figma</desc>
<g id="Canvas" transform="translate(-10 -86)" figma:type="canvas">
<mask id="mask0_alpha" mask-type="alpha">
<path d="M 10 86L 140 86L 140 141L 10 141L 10 86Z" fill="#FFFFFF"/>
</mask>
<g id="Frame" style="mix-blend-mode:normal;" mask="url(#mask0_alpha)" figma:type="frame">
<g id="HP" style="mix-blend-mode:normal;" figma:type="text">
<use xlink:href="#path0_fill" transform="translate(43 86)" style="mix-blend-mode:normal;"/>
</g>
<g id="plus" style="mix-blend-mode:normal;" figma:type="vector">
<use xlink:href="#path1_fill" transform="translate(12.4082 99)" style="mix-blend-mode:normal;"/>
</g>
</g>
</g>
<defs>
<path id="path0_fill" d="M 36.3599 8.20068C 36.3599 7.43896 36.4233 6.92057 36.5503 6.64551C 36.6984 6.34928 36.984 6.14827 37.4072 6.04248L 48.3252 3.4082C 48.6003 3.32357 48.8859 3.28125 49.1821 3.28125C 49.4784 3.28125 49.6794 3.37646 49.7852 3.56689C 49.891 3.73617 49.9438 4.09587 49.9438 4.646L 49.563 9.62891C 49.4572 11.0889 49.3408 12.5382 49.2139 13.9771C 49.0869 15.4159 48.8965 16.6748 48.6426 17.7539L 48.0713 22.2607C 47.902 23.5938 47.7433 25.0431 47.5952 26.6089C 47.4471 28.1535 47.2884 29.8885 47.1191 31.814L 45.6274 47.4609C 45.6063 47.6514 45.564 47.8418 45.5005 48.0322C 45.437 48.2227 45.2995 48.3602 45.0879 48.4448C 44.9398 48.5083 44.5907 48.6458 44.0405 48.8574C 43.5116 49.069 42.8768 49.3123 42.1362 49.5874C 41.3957 49.8625 40.6022 50.1481 39.7559 50.4443C 38.9095 50.7617 38.1055 51.0474 37.3438 51.3013C 36.582 51.5552 35.9049 51.7668 35.3125 51.936C 34.7201 52.1053 34.318 52.1899 34.1064 52.1899C 33.8102 52.1899 33.5457 52.1053 33.313 51.936C 33.1014 51.7879 32.9956 51.4917 32.9956 51.0474C 32.9956 48.4871 33.1437 45.874 33.4399 43.208C 33.7362 40.5208 34.0007 37.8548 34.2334 35.21C 34.2757 34.9137 34.2863 34.6387 34.2651 34.3848C 34.2651 34.1309 34.2863 33.8558 34.3286 33.5596L 22.7124 33.5596L 21.4111 47.4609C 21.39 47.6514 21.3477 47.8418 21.2842 48.0322C 21.2419 48.2015 21.1043 48.339 20.8716 48.4448C 20.7869 48.4871 20.3638 48.6458 19.6021 48.9209C 18.8615 49.1748 17.994 49.4816 16.9995 49.8413C 16.0262 50.1799 15.0529 50.5184 14.0796 50.8569C 13.1274 51.2166 12.3975 51.4917 11.8896 51.6821C 11.6357 51.7879 11.3184 51.8937 10.9375 51.9995C 10.5778 52.1265 10.2181 52.1899 9.8584 52.1899C 9.56217 52.1899 9.29769 52.1053 9.06494 51.936C 8.85335 51.7668 8.74756 51.46 8.74756 51.0156C 8.74756 50 8.7793 48.8468 8.84277 47.5562C 8.92741 46.2443 9.02262 44.8796 9.12842 43.4619C 9.23421 42.0231 9.36117 40.5526 9.50928 39.0503C 9.65739 37.548 9.8055 36.0669 9.95361 34.6069L 10.0171 33.6865C 8.30322 33.6865 7.05485 33.6442 6.27197 33.5596C 5.51025 33.4538 5.12939 33.1999 5.12939 32.7979C 5.12939 32.5228 5.28809 32.1631 5.60547 31.7188C 6.02865 31.1263 6.5153 30.4175 7.06543 29.5923C 7.63672 28.7459 8.17627 27.9207 8.68408 27.1167C 9.21305 26.2915 9.67855 25.5615 10.0806 24.9268C 10.5037 24.2708 10.7788 23.8477 10.9058 23.6572L 11.6357 16.0083C 11.6357 15.966 11.6569 15.6486 11.6992 15.0562C 11.7415 14.4637 11.7944 13.7655 11.8579 12.9614C 11.9214 12.1362 11.9849 11.2899 12.0483 10.4224C 12.133 9.55485 12.207 8.81429 12.2705 8.20068C 12.3128 7.46012 12.3657 6.94173 12.4292 6.64551C 12.5138 6.34928 12.7677 6.14827 13.1909 6.04248L 23.9819 3.4082C 24.257 3.32357 24.5426 3.28125 24.8389 3.28125C 25.1351 3.28125 25.3361 3.37646 25.4419 3.56689C 25.5477 3.73617 25.6006 4.09587 25.6006 4.646C 25.4525 6.16943 25.3361 7.55534 25.2515 8.80371C 25.1668 10.0521 25.0716 11.2158 24.9658 12.2949C 24.8812 13.374 24.786 14.4002 24.6802 15.3735C 24.5744 16.3468 24.4263 17.3413 24.2358 18.3569L 23.6011 23.2764L 35.1221 23.1494C 35.3125 20.3353 35.5241 17.9443 35.7568 15.9766C 35.9896 14.0088 36.1377 12.4536 36.2012 11.311C 36.2646 10.2319 36.307 9.45964 36.3281 8.99414C 36.3493 8.52865 36.3599 8.26416 36.3599 8.20068ZM 94.314 17.0239C 94.2928 18.8436 94.113 20.4728 93.7744 21.9116C 93.457 23.3504 92.9915 24.6517 92.3779 25.8154C 91.7855 26.958 91.0555 27.9948 90.188 28.9258C 89.3416 29.8356 88.3683 30.6925 87.2681 31.4966C 85.1522 33.02 82.8353 34.1732 80.3174 34.9561C 77.7995 35.7178 75.271 36.0986 72.7319 36.0986C 72.3088 36.0986 71.8856 36.0881 71.4624 36.0669C 71.0604 36.0457 70.6478 36.014 70.2246 35.9717L 69.1772 47.5562L 68.6377 48.54C 68.5954 48.6247 68.2357 48.7939 67.5586 49.0479C 66.8815 49.3018 66.0352 49.598 65.0195 49.9365L 63.02 50.603C 62.3853 50.8358 61.8245 51.0474 61.3379 51.2378C 60.8512 51.4282 60.3963 51.5975 59.9731 51.7456C 59.55 51.8937 59.1374 51.9995 58.7354 52.063C 58.3333 52.1476 57.9102 52.1899 57.4658 52.1899C 57.1696 52.1899 56.9368 52.1159 56.7676 51.9678C 56.5983 51.8197 56.5137 51.534 56.5137 51.1108L 56.8628 45.6836C 56.9263 44.6045 57.0003 43.5254 57.085 42.4463C 57.1908 41.346 57.286 40.0977 57.3706 38.7012L 57.9736 31.1157C 58.1006 29.5711 58.217 28.0265 58.3228 26.4819C 58.4285 24.9373 58.5343 23.4668 58.6401 22.0703C 58.7459 20.6738 58.8411 19.3726 58.9258 18.1665C 59.0104 16.9393 59.0845 15.8708 59.1479 14.9609C 58.0054 15.2148 57.085 15.4053 56.3867 15.5322C 55.7096 15.638 55.1912 15.6909 54.8315 15.6909C 54.3872 15.6909 54.165 15.5005 54.165 15.1196C 54.4613 14.0828 54.7363 13.0672 54.9902 12.0728C 55.223 11.2264 55.4557 10.3589 55.6885 9.47021C 55.9424 8.56038 56.154 7.79867 56.3232 7.18506C 56.429 6.8042 56.5454 6.51855 56.6724 6.32812C 56.8205 6.11654 57.0003 5.95785 57.2119 5.85205C 57.4447 5.7251 57.7303 5.6193 58.0688 5.53467C 58.4285 5.42887 58.8623 5.29134 59.3701 5.12207C 59.7721 4.99512 60.3328 4.85758 61.0522 4.70947C 61.7928 4.5402 62.6286 4.38151 63.5596 4.2334C 64.5117 4.06413 65.5379 3.90544 66.6382 3.75732C 67.7384 3.60921 68.8493 3.48226 69.9707 3.37646C 71.1133 3.24951 72.2347 3.1543 73.335 3.09082C 74.4352 3.00618 75.472 2.96387 76.4453 2.96387C 78.8574 2.96387 81.1426 3.18604 83.3008 3.63037C 85.459 4.07471 87.3527 4.83643 88.9819 5.91553C 90.6112 6.97347 91.9019 8.41227 92.854 10.2319C 93.8273 12.0304 94.314 14.2944 94.314 17.0239ZM 71.1133 26.5454C 71.1133 26.7782 71.1556 26.9897 71.2402 27.1802C 71.3249 27.3494 71.5576 27.4341 71.9385 27.4341C 72.5309 27.4341 73.2292 27.3071 74.0332 27.0532C 74.8584 26.7782 75.673 26.3761 76.4771 25.8472C 77.3022 25.3182 78.064 24.6623 78.7622 23.8794C 79.4604 23.0965 79.9894 22.1761 80.3491 21.1182C 80.4972 20.695 80.6136 20.1554 80.6982 19.4995C 80.804 18.8436 80.8569 18.0713 80.8569 17.1826C 80.8569 15.7015 80.3385 14.6118 79.3018 13.9136C 78.2861 13.2153 76.9531 12.8662 75.3027 12.8662C 75.0277 12.8662 74.7103 12.8874 74.3506 12.9297C 74.012 12.9508 73.6841 13.0037 73.3667 13.0884C 73.0705 13.173 72.8166 13.2788 72.605 13.4058C 72.3934 13.5116 72.277 13.6597 72.2559 13.8501L 72.1924 14.5483C 72.1712 14.8234 72.1289 15.2783 72.0654 15.9131C 72.002 16.5267 71.9279 17.2355 71.8433 18.0396C 71.7798 18.8436 71.7057 19.6899 71.6211 20.5786C 71.5576 21.4673 71.4836 22.3136 71.3989 23.1177C 71.3354 23.9217 71.272 24.6305 71.2085 25.2441C 71.1662 25.8577 71.1344 26.2915 71.1133 26.5454Z"/>
<path id="path1_fill" d="M 19.5399 0L 12.0519 0C 10.9474 0 10.0519 0.895431 10.0519 2L 10.0519 8.29702C 10.0519 9.40159 9.15652 10.297 8.05195 10.297L 2 10.297C 0.895431 10.297 0 11.1925 0 12.297L 0 18.5941C 0 19.6986 0.895431 20.5941 2 20.5941L 8.05195 20.5941C 9.15652 20.5941 10.0519 21.4895 10.0519 22.5941L 10.0519 28.8911C 10.0519 29.9957 10.9474 30.8911 12.0519 30.8911L 19.5399 30.8911C 20.6445 30.8911 21.5399 29.9957 21.5399 28.8911L 21.5399 22.5941C 21.5399 21.4895 22.4353 20.5941 23.5399 20.5941L 29.5918 20.5941C 30.6964 20.5941 31.5918 19.6986 31.5918 18.5941L 31.5918 12.297C 31.5918 11.1925 30.6964 10.297 29.5918 10.297L 23.5399 10.297C 22.4353 10.297 21.5399 9.40159 21.5399 8.29702L 21.5399 2C 21.5399 0.895431 20.6445 0 19.5399 0Z"/>
</defs>
</svg>
