<svg xmlns="http://www.w3.org/2000/svg" width="150" height="150" xmlns:xlink="http://www.w3.org/1999/xlink" xmlns:figma="http://www.figma.com/figma/ns"><g figma:type="canvas"><mask id="a"><path fill="#FFF" d="M0 0h150v150H0V0z"/></mask><g style="mix-blend-mode:normal" mask="url(#a)" figma:type="frame"><use xlink:href="#b" transform="translate(44.224)" style="mix-blend-mode:normal" figma:type="text"/><use xlink:href="#c" transform="translate(12.633 59.554)" style="mix-blend-mode:normal" figma:type="vector"/></g></g><defs><path id="b" d="M36.248 55.005c0-.762.063-1.28.19-1.555.148-.297.434-.498.857-.603l10.918-2.635c.275-.084.56-.127.857-.127.296 0 .497.096.603.286.106.17.16.53.16 1.08l-.382 4.99c-.1 1.46-.22 2.91-.34 4.35-.12 1.44-.32 2.7-.57 3.78l-.57 4.51c-.17 1.34-.33 2.79-.47 4.35-.15 1.55-.3 3.28-.47 5.21l-1.5 15.64c-.02.19-.06.38-.12.57-.06.2-.2.33-.41.42-.15.07-.5.2-1.05.42-.53.21-1.16.46-1.9.73-.74.28-1.54.56-2.38.86-.85.32-1.65.61-2.42.86-.76.26-1.44.47-2.03.64-.59.17-.99.26-1.21.26-.29 0-.56-.08-.79-.25-.21-.15-.31-.44-.31-.89 0-2.56.15-5.17.45-7.84.3-2.68.56-5.35.8-8 .05-.29.06-.57.04-.82 0-.25.02-.53.068-.82H22.6l-1.3 13.9c-.022.19-.065.38-.128.57-.042.17-.18.3-.413.41-.09.04-.51.2-1.27.47-.74.25-1.61.56-2.61.92-.98.34-1.95.68-2.92 1.014-.95.36-1.68.635-2.19.825-.26.1-.57.21-.95.32-.36.12-.72.19-1.08.19-.3 0-.56-.09-.79-.26-.21-.17-.32-.48-.32-.92 0-1.02.03-2.17.09-3.46.08-1.31.18-2.68.28-4.1.1-1.44.23-2.91.38-4.41s.29-2.98.44-4.44l.06-.92c-1.71 0-2.96-.045-3.75-.13-.76-.11-1.14-.36-1.14-.765 0-.27.16-.63.47-1.08.42-.59.91-1.3 1.46-2.12.57-.847 1.11-1.67 1.62-2.476l1.39-2.19c.42-.66.7-1.08.82-1.27l.73-7.65c0-.048.02-.36.06-.958.04-.59.09-1.29.16-2.09l.19-2.54.22-2.22c.04-.74.09-1.26.16-1.554.08-.293.34-.494.76-.6l10.79-2.633c.27-.086.56-.13.85-.13.3 0 .5.095.606.285.104.17.16.53.16 1.08-.15 1.526-.267 2.91-.35 4.16-.086 1.25-.18 2.41-.287 3.49-.086 1.08-.18 2.107-.29 3.08-.11.974-.254 1.97-.444 2.984l-.63 4.92L35 69.95c.19-2.812.4-5.203.63-7.17.232-1.968.38-3.523.444-4.666.062-1.08.105-1.85.126-2.32.02-.464.035-.73.035-.792zm57.954 8.823c-.02 1.82-.2 3.45-.54 4.888-.317 1.44-.783 2.74-1.396 3.904-.593 1.142-1.323 2.18-2.19 3.11-.847.91-1.82 1.767-2.92 2.57-2.116 1.524-4.433 2.677-6.95 3.46-2.52.762-5.047 1.143-7.586 1.143-.424 0-.847-.01-1.27-.032-.402-.02-.814-.05-1.238-.09l-1.047 11.58-.54.99c-.042.09-.402.26-1.08.51-.676.26-1.522.55-2.538.89l-2 .67c-.634.24-1.195.45-1.68.64-.488.19-.943.36-1.366.51-.42.15-.83.26-1.23.32-.4.09-.82.13-1.27.13-.29 0-.53-.07-.7-.22-.17-.15-.25-.43-.25-.86l.35-5.43c.07-1.08.14-2.16.23-3.23.11-1.1.2-2.34.29-3.74l.61-7.58c.13-1.54.25-3.09.35-4.63.11-1.54.21-3.01.32-4.41.11-1.39.2-2.7.29-3.9l.23-3.2c-1.14.26-2.06.45-2.76.57-.68.11-1.19.16-1.55.16-.44 0-.66-.19-.66-.57.3-1.04.57-2.05.83-3.05.238-.84.47-1.71.7-2.6l.638-2.28c.104-.38.22-.66.35-.85.145-.21.325-.37.54-.475.23-.13.515-.237.854-.32.36-.11.793-.246 1.3-.415.403-.13.964-.267 1.683-.415.74-.17 1.573-.33 2.504-.475.95-.17 1.98-.323 3.08-.47 1.1-.15 2.21-.28 3.33-.38 1.14-.13 2.266-.226 3.366-.29 1.1-.084 2.138-.126 3.11-.126 2.41 0 4.698.22 6.857.67 2.155.44 4.05 1.2 5.68 2.28 1.63 1.06 2.92 2.5 3.87 4.32.973 1.8 1.46 4.06 1.46 6.79zm-23.2 9.522c0 .232.04.444.126.634.085.17.317.254.698.254.593 0 1.29-.127 2.095-.38.83-.276 1.64-.678 2.45-1.207.83-.52 1.59-1.18 2.29-1.96s1.23-1.7 1.59-2.76c.15-.42.27-.96.35-1.62.11-.65.16-1.43.16-2.31 0-1.48-.52-2.57-1.55-3.27-1.01-.69-2.35-1.04-4-1.04-.27 0-.59.03-.95.07-.33.02-.66.08-.98.16-.29.09-.55.19-.76.32-.21.11-.33.26-.35.45l-.06.7c-.02.28-.06.73-.12 1.37l-.22 2.13c-.06.81-.13 1.65-.22 2.54-.06.89-.14 1.74-.22 2.54-.06.81-.12 1.52-.19 2.13-.04.62-.07 1.05-.09 1.3z"/><path id="c" d="M19.54 0h-7.488c-1.105 0-2 .895-2 2v6.297c0 1.105-.895 2-2 2H2c-1.105 0-2 .896-2 2v6.297c0 1.105.895 2 2 2h6.052c1.105 0 2 .895 2 2v6.297c0 1.11.895 2 2 2h7.488c1.105 0 2-.89 2-2V22.6c0-1.105.895-2 2-2h6.052c1.104 0 2-.895 2-2v-6.3c0-1.105-.896-2-2-2H23.54c-1.105 0-2-.896-2-2V2c0-1.105-.895-2-2-2z"/></defs></svg>
