<svg width="150" height="150" viewBox="0 0 150 150" version="1.1" xmlns="http://www.w3.org/2000/svg" xmlns:xlink="http://www.w3.org/1999/xlink" xmlns:figma="http://www.figma.com/figma/ns">
<title>Logo</title>
<desc>Created using Figma</desc>
<g id="Canvas" figma:type="canvas">
<mask id="mask0_alpha" mask-type="alpha">
<path d="M 0 0L 150 0L 150 150L 0 150L 0 0Z" fill="#FFFFFF"/>
</mask>
<g id="Frame" style="mix-blend-mode:normal;" mask="url(#mask0_alpha)" figma:type="frame">
<g id="HP" style="mix-blend-mode:normal;" figma:type="text">
<use xlink:href="#path0_fill" transform="translate(44.2245 0)" style="mix-blend-mode:normal;"/>
</g>
<g id="plus" style="mix-blend-mode:normal;" figma:type="vector">
<use xlink:href="#path1_fill" transform="translate(12.6327 59.5545)" style="mix-blend-mode:normal;"/>
</g>
</g>
</g>
<defs>
<path id="path0_fill" d="M 36.2476 55.0049C 36.2476 54.2432 36.3111 53.7248 36.438 53.4497C 36.5862 53.1535 36.8718 52.9525 37.295 52.8467L 48.213 50.2124C 48.488 50.1278 48.7737 50.0854 49.0699 50.0854C 49.3661 50.0854 49.5671 50.1807 49.6729 50.3711C 49.7787 50.5404 49.8316 50.9001 49.8316 51.4502L 49.4507 56.4331C 49.3449 57.8931 49.2286 59.3424 49.1016 60.7812C 48.9747 62.2201 48.7842 63.479 48.5303 64.5581L 47.959 69.0649C 47.7898 70.3979 47.6311 71.8473 47.483 73.4131C 47.3349 74.9577 47.1762 76.6927 47.0069 78.6182L 45.5152 94.2651C 45.494 94.4556 45.4517 94.646 45.3882 94.8364C 45.3248 95.0269 45.1872 95.1644 44.9756 95.249C 44.8275 95.3125 44.4784 95.45 43.9283 95.6616C 43.3993 95.8732 42.7645 96.1165 42.024 96.3916C 41.2834 96.6667 40.49 96.9523 39.6436 97.2485C 38.7973 97.5659 37.9932 97.8516 37.2315 98.1055C 36.4698 98.3594 35.7927 98.571 35.2003 98.7402C 34.6078 98.9095 34.2058 98.9941 33.9942 98.9941C 33.698 98.9941 33.4335 98.9095 33.2007 98.7402C 32.9892 98.5921 32.8834 98.2959 32.8834 97.8516C 32.8834 95.2913 33.0315 92.6782 33.3277 90.0122C 33.6239 87.325 33.8884 84.659 34.1212 82.0142C 34.1635 81.7179 34.1741 81.4429 34.1529 81.189C 34.1529 80.9351 34.1741 80.66 34.2164 80.3638L 22.6002 80.3638L 21.2989 94.2651C 21.2777 94.4556 21.2354 94.646 21.1719 94.8364C 21.1296 95.0057 20.9921 95.1432 20.7593 95.249C 20.6747 95.2913 20.2515 95.45 19.4898 95.7251C 18.7492 95.979 17.8817 96.2858 16.8873 96.6455C 15.914 96.984 14.9407 97.3226 13.9673 97.6611C 13.0152 98.0208 12.2852 98.2959 11.7774 98.4863C 11.5235 98.5921 11.2061 98.6979 10.8253 98.8037C 10.4656 98.9307 10.1059 98.9941 9.74615 98.9941C 9.44993 98.9941 9.18544 98.9095 8.9527 98.7402C 8.74111 98.571 8.63531 98.2642 8.63531 97.8198C 8.63531 96.8042 8.66705 95.651 8.73053 94.3604C 8.81517 93.0485 8.91038 91.6838 9.01617 90.2661C 9.12197 88.8273 9.24892 87.3568 9.39703 85.8545C 9.54515 84.3522 9.69326 82.8711 9.84137 81.4111L 9.90485 80.4907C 8.19098 80.4907 6.94261 80.4484 6.15973 80.3638C 5.39801 80.258 5.01715 80.0041 5.01715 79.6021C 5.01715 79.327 5.17584 78.9673 5.49323 78.5229C 5.9164 77.9305 6.40306 77.2217 6.95319 76.3965C 7.52448 75.5501 8.06403 74.7249 8.57184 73.9209C 9.10081 73.0957 9.5663 72.3657 9.96832 71.731C 10.3915 71.075 10.6666 70.6519 10.7935 70.4614L 11.5235 62.8125C 11.5235 62.7702 11.5447 62.4528 11.587 61.8604C 11.6293 61.2679 11.6822 60.5697 11.7457 59.7656C 11.8091 58.9404 11.8726 58.0941 11.9361 57.2266C 12.0207 56.359 12.0948 55.6185 12.1583 55.0049C 12.2006 54.2643 12.2535 53.7459 12.317 53.4497C 12.4016 53.1535 12.6555 52.9525 13.0787 52.8467L 23.8697 50.2124C 24.1448 50.1278 24.4304 50.0854 24.7266 50.0854C 25.0228 50.0854 25.2239 50.1807 25.3297 50.3711C 25.4354 50.5404 25.4883 50.9001 25.4883 51.4502C 25.3402 52.9736 25.2239 54.3595 25.1392 55.6079C 25.0546 56.8563 24.9594 58.02 24.8536 59.0991C 24.7689 60.1782 24.6737 61.2044 24.5679 62.1777C 24.4621 63.151 24.314 64.1455 24.1236 65.1611L 23.4888 70.0806L 35.0098 69.9536C 35.2003 67.1395 35.4118 64.7485 35.6446 62.7808C 35.8773 60.813 36.0255 59.2578 36.0889 58.1152C 36.1524 57.0361 36.1947 56.2638 36.2159 55.7983C 36.237 55.3328 36.2476 55.0684 36.2476 55.0049ZM 94.2017 63.8281C 94.1806 65.6478 94.0007 67.277 93.6622 68.7158C 93.3448 70.1546 92.8793 71.4559 92.2657 72.6196C 91.6732 73.7622 90.9433 74.799 90.0757 75.73C 89.2294 76.6398 88.2561 77.4967 87.1558 78.3008C 85.0399 79.8242 82.723 80.9774 80.2051 81.7603C 77.6872 82.522 75.1588 82.9028 72.6197 82.9028C 72.1965 82.9028 71.7733 82.8923 71.3502 82.8711C 70.9481 82.8499 70.5355 82.8182 70.1124 82.7759L 69.065 94.3604L 68.5255 95.3442C 68.4831 95.4289 68.1234 95.5981 67.4464 95.8521C 66.7693 96.106 65.9229 96.4022 64.9073 96.7407L 62.9078 97.4072C 62.273 97.64 61.7123 97.8516 61.2256 98.042C 60.739 98.2324 60.2841 98.4017 59.8609 98.5498C 59.4377 98.6979 59.0251 98.8037 58.6231 98.8672C 58.2211 98.9518 57.7979 98.9941 57.3536 98.9941C 57.0574 98.9941 56.8246 98.9201 56.6553 98.772C 56.4861 98.6239 56.4014 98.3382 56.4014 97.915L 56.7505 92.4878C 56.814 91.4087 56.8881 90.3296 56.9727 89.2505C 57.0785 88.1502 57.1737 86.9019 57.2584 85.5054L 57.8614 77.9199C 57.9883 76.3753 58.1047 74.8307 58.2105 73.2861C 58.3163 71.7415 58.4221 70.271 58.5279 68.8745C 58.6337 67.478 58.7289 66.1768 58.8135 64.9707C 58.8982 63.7435 58.9722 62.675 59.0357 61.7651C 57.8931 62.019 56.9727 62.2095 56.2745 62.3364C 55.5974 62.4422 55.079 62.4951 54.7193 62.4951C 54.275 62.4951 54.0528 62.3047 54.0528 61.9238C 54.349 60.887 54.6241 59.8714 54.878 58.877C 55.1107 58.0306 55.3435 57.1631 55.5762 56.2744C 55.8301 55.3646 56.0417 54.6029 56.211 53.9893C 56.3168 53.6084 56.4332 53.3228 56.5601 53.1323C 56.7082 52.9207 56.8881 52.762 57.0997 52.6562C 57.3324 52.5293 57.6181 52.4235 57.9566 52.3389C 58.3163 52.2331 58.7501 52.0955 59.2579 51.9263C 59.6599 51.7993 60.2206 51.6618 60.94 51.5137C 61.6806 51.3444 62.5163 51.1857 63.4473 51.0376C 64.3995 50.8683 65.4257 50.7096 66.5259 50.5615C 67.6262 50.4134 68.737 50.2865 69.8585 50.1807C 71.001 50.0537 72.1225 49.9585 73.2227 49.895C 74.323 49.8104 75.3598 49.7681 76.3331 49.7681C 78.7452 49.7681 81.0303 49.9902 83.1885 50.4346C 85.3467 50.8789 87.2405 51.6406 88.8697 52.7197C 90.4989 53.7777 91.7896 55.2165 92.7418 57.0361C 93.7151 58.8346 94.2017 61.0986 94.2017 63.8281ZM 71.001 73.3496C 71.001 73.5824 71.0434 73.7939 71.128 73.9844C 71.2126 74.1536 71.4454 74.2383 71.8262 74.2383C 72.4187 74.2383 73.1169 74.1113 73.921 73.8574C 74.7462 73.5824 75.5608 73.1803 76.3648 72.6514C 77.19 72.1224 77.9517 71.4665 78.65 70.6836C 79.3482 69.9007 79.8772 68.9803 80.2369 67.9224C 80.385 67.4992 80.5014 66.9596 80.586 66.3037C 80.6918 65.6478 80.7447 64.8755 80.7447 63.9868C 80.7447 62.5057 80.2263 61.416 79.1895 60.7178C 78.1739 60.0195 76.8409 59.6704 75.1905 59.6704C 74.9154 59.6704 74.598 59.6916 74.2383 59.7339C 73.8998 59.755 73.5718 59.8079 73.2545 59.8926C 72.9582 59.9772 72.7043 60.083 72.4927 60.21C 72.2811 60.3158 72.1648 60.4639 72.1436 60.6543L 72.0801 61.3525C 72.059 61.6276 72.0167 62.0825 71.9532 62.7173C 71.8897 63.3309 71.8157 64.0397 71.731 64.8438C 71.6675 65.6478 71.5935 66.4941 71.5089 67.3828C 71.4454 68.2715 71.3713 69.1178 71.2867 69.9219C 71.2232 70.7259 71.1597 71.4347 71.0963 72.0483C 71.0539 72.6619 71.0222 73.0957 71.001 73.3496Z"/>
<path id="path1_fill" d="M 19.5399 0L 12.0519 0C 10.9474 0 10.0519 0.895431 10.0519 2L 10.0519 8.29702C 10.0519 9.40159 9.15652 10.297 8.05195 10.297L 2 10.297C 0.895431 10.297 0 11.1925 0 12.297L 0 18.5941C 0 19.6986 0.895431 20.5941 2 20.5941L 8.05195 20.5941C 9.15652 20.5941 10.0519 21.4895 10.0519 22.5941L 10.0519 28.8911C 10.0519 29.9957 10.9474 30.8911 12.0519 30.8911L 19.5399 30.8911C 20.6445 30.8911 21.5399 29.9957 21.5399 28.8911L 21.5399 22.5941C 21.5399 21.4895 22.4353 20.5941 23.5399 20.5941L 29.5918 20.5941C 30.6964 20.5941 31.5918 19.6986 31.5918 18.5941L 31.5918 12.297C 31.5918 11.1925 30.6964 10.297 29.5918 10.297L 23.5399 10.297C 22.4353 10.297 21.5399 9.40159 21.5399 8.29702L 21.5399 2C 21.5399 0.895431 20.6445 0 19.5399 0Z"/>
</defs>
</svg>
