<svg xmlns="http://www.w3.org/2000/svg" xmlns:xlink="http://www.w3.org/1999/xlink" viewBox="0 0 16 16">
  <g transform="translate(-13 -86)">
    <mask id="a">
      <path d="M13 86h16v16H13V86z" fill="#FFF" />
    </mask>
    <g style="mix-blend-mode:normal" mask="url(#a)">
      <use xlink:href="#path0_fill" transform="translate(13.5 86.5)" fill="#69D2E7" style="mix-blend-mode:normal" />
      <use xlink:href="#path1_fill" transform="translate(16 89)" fill="#FFF" style="mix-blend-mode:normal" />
    </g>
  </g>
  <defs>
    <path id="path0_fill" d="M0 2a2 2 0 012-2h11a2 2 0 012 2v11a2 2 0 01-2 2H2a2 2 0 01-2-2V2z" />
    <path id="path1_fill"
      d="M6.418 0H3.582a.4.4 0 00-.4.4v2.533a.4.4 0 01-.4.4H.4a.4.4 0 00-.4.4v2.534c0 .22.18.4.4.4h2.382c.22 0 .4.179.4.4V9.6c0 .22.179.4.4.4h2.836a.4.4 0 00.4-.4V7.067c0-.221.18-.4.4-.4H9.6a.4.4 0 00.4-.4V3.733a.4.4 0 00-.4-.4H7.218a.4.4 0 01-.4-.4V.4a.4.4 0 00-.4-.4z" />
  </defs>
</svg>