<svg width="16" height="16" viewBox="0 0 16 16" version="1.1" xmlns="http://www.w3.org/2000/svg" xmlns:xlink="http://www.w3.org/1999/xlink" xmlns:figma="http://www.figma.com/figma/ns">
<title>Frame</title>
<desc>Created using Figma</desc>
<g id="Canvas" transform="translate(-13 -86)" figma:type="canvas">
<mask id="mask0_alpha" mask-type="alpha">
<path d="M 13 86L 29 86L 29 102L 13 102L 13 86Z" fill="#FFFFFF"/>
</mask>
<g id="Frame" style="mix-blend-mode:normal;" mask="url(#mask0_alpha)" figma:type="frame">
<g id="Rectangle" style="mix-blend-mode:normal;" figma:type="rounded-rectangle">
<use xlink:href="#path0_fill" transform="translate(13.5 86.5)" fill="#69D2E7" style="mix-blend-mode:normal;"/>
</g>
<g id="plus" style="mix-blend-mode:normal;" figma:type="vector">
<use xlink:href="#path1_fill" transform="translate(16 89)" fill="#FFFFFF" style="mix-blend-mode:normal;"/>
</g>
</g>
</g>
<defs>
<path id="path0_fill" d="M 0 2C 0 0.895431 0.895431 0 2 0L 13 0C 14.1046 0 15 0.895431 15 2L 15 13C 15 14.1046 14.1046 15 13 15L 2 15C 0.895431 15 0 14.1046 0 13L 0 2Z"/>
<path id="path1_fill" d="M 6.41818 0L 3.58182 0C 3.3609 0 3.18182 0.179086 3.18182 0.4L 3.18182 2.93333C 3.18182 3.15424 3.00273 3.33333 2.78182 3.33333L 0.4 3.33333C 0.179086 3.33333 0 3.51242 0 3.73333L 0 6.26667C 0 6.48759 0.179086 6.66667 0.4 6.66667L 2.78182 6.66667C 3.00273 6.66667 3.18182 6.84576 3.18182 7.06667L 3.18182 9.6C 3.18182 9.82091 3.3609 10 3.58182 10L 6.41818 10C 6.6391 10 6.81818 9.82091 6.81818 9.6L 6.81818 7.06667C 6.81818 6.84576 6.99727 6.66667 7.21818 6.66667L 9.6 6.66667C 9.82091 6.66667 10 6.48759 10 6.26667L 10 3.73333C 10 3.51242 9.82091 3.33333 9.6 3.33333L 7.21818 3.33333C 6.99727 3.33333 6.81818 3.15424 6.81818 2.93333L 6.81818 0.4C 6.81818 0.179086 6.6391 0 6.41818 0Z"/>
</defs>
</svg>
